# xmcd
#
# Track frame offsets:
#	150
#	20035
#	38841
#	56628
#	74554
#	92611
#	111035
#	130158
#	149667
#	163140
#	181536
#	200481
#	215280
#	230647
#	247272
#	262183
#	276659
#
# Disc length: 3842 seconds
#
# Revision: 1
# Processed by: cddbd v1.4PL0 Copyright (c) Steve Scherf et al.
# Submitted via: audiograbber 1.80.04
#
DISCID=100f0011
DTITLE=dddd - ddddddddddddd
DYEAR=1900
DGENRE=Pop/Funk
TTITLE0=d - poio monopati
TTITLE1=d - d
TTITLE2=d - d
TTITLE3=d - d
TTITLE4=d - d
TTITLE5=d - d
TTITLE6=d - d
TTITLE7=d - ad
TTITLE8=s - ad
TTITLE9=s - ad
TTITLE10=sd - ad
TTITLE11=d - ad
TTITLE12=sd - da
TTITLE13=ad - ad
TTITLE14=ad - ad
TTITLE15=add - ad
TTITLE16=da - ad
EXTD=
EXTT0=
EXTT1=
EXTT2=
EXTT3=
EXTT4=
EXTT5=
EXTT6=
EXTT7=
EXTT8=
EXTT9=
EXTT10=
EXTT11=
EXTT12=
EXTT13=
EXTT14=
EXTT15=
EXTT16=
PLAYORDER=
